<svg xmlns="http://www.w3.org/2000/svg" viewBox="0 0 24.117 13.631">
    <defs>
        <style>
            .cls-1{fill:#fff}
        </style>
    </defs>
    <path id="Union_739" d="M1.162 13.633a1.162 1.162 0 0 1-1.047-1.267A1.161 1.161 0 0 1 1.162 11.1h22.024a1.161 1.161 0 0 1 1.047 1.266 1.162 1.162 0 0 1-1.047 1.267zm0-5.575A1.161 1.161 0 0 1 .115 6.792a1.161 1.161 0 0 1 1.047-1.267h13.273a1.161 1.161 0 0 1 1.047 1.267 1.161 1.161 0 0 1-1.047 1.266zm0-5.523A1.161 1.161 0 0 1 .115 1.269 1.161 1.161 0 0 1 1.163 0H18.2a1.161 1.161 0 0 1 1.05 1.269 1.161 1.161 0 0 1-1.05 1.266z" class="cls-1" data-name="Union 739" transform="translate(-.115 -.002)"/>
</svg>
